<svg width="74" height="80" viewBox="0 0 74 80" fill="none" xmlns="http://www.w3.org/2000/svg">
<g id="material-symbols:forum">
<path id="Vector" d="M21.5833 60C20.7097 60 19.9779 59.68 19.388 59.04C18.7981 58.4 18.5021 57.6089 18.5 56.6667V50H58.5833V20H64.75C65.6236 20 66.3564 20.32 66.9484 20.96C67.5404 21.6 67.8354 22.3911 67.8333 23.3333V73.3333L55.5 60H21.5833ZM6.16666 56.6667V9.99999C6.16666 9.05555 6.46266 8.26443 7.05466 7.62666C7.64666 6.98888 8.37844 6.66888 9.25 6.66666H49.3333C50.2069 6.66666 50.9397 6.98666 51.5317 7.62666C52.1237 8.26666 52.4187 9.05777 52.4167 9.99999V40C52.4167 40.9444 52.1207 41.7367 51.5287 42.3767C50.9367 43.0167 50.2049 43.3355 49.3333 43.3333H18.5L6.16666 56.6667Z" fill="white"/>
</g>
</svg>
