<svg width="89" height="94" viewBox="0 0 89 94" fill="none" xmlns="http://www.w3.org/2000/svg">
<g id="iconoir:leaderboard-star">
<g id="Vector">
<path d="M55.625 82.25H33.375V49.35C33.375 48.7267 33.6094 48.129 34.0267 47.6883C34.444 47.2476 35.0099 47 35.6 47H53.4C53.9901 47 54.556 47.2476 54.9733 47.6883C55.3906 48.129 55.625 48.7267 55.625 49.35V82.25ZM75.65 82.25H55.625V70.8917C55.625 70.2684 55.8594 69.6707 56.2767 69.23C56.694 68.7892 57.2599 68.5417 57.85 68.5417H75.65C76.2401 68.5417 76.806 68.7892 77.2233 69.23C77.6406 69.6707 77.875 70.2684 77.875 70.8917V79.9C77.875 80.5232 77.6406 81.121 77.2233 81.5617C76.806 82.0024 76.2401 82.25 75.65 82.25ZM33.375 82.25V63.0583C33.375 62.4351 33.1406 61.8373 32.7233 61.3966C32.306 60.9559 31.7401 60.7083 31.15 60.7083H13.35C12.7599 60.7083 12.194 60.9559 11.7767 61.3966C11.3594 61.8373 11.125 62.4351 11.125 63.0583V79.9C11.125 80.5232 11.3594 81.121 11.7767 81.5617C12.194 82.0024 12.7599 82.25 13.35 82.25H33.375ZM40.0722 20.0259L43.4431 12.4785C43.5341 12.2627 43.6824 12.0795 43.87 11.9508C44.0575 11.8222 44.2764 11.7538 44.5 11.7538C44.7236 11.7538 44.9425 11.8222 45.13 11.9508C45.3176 12.0795 45.4659 12.2627 45.5569 12.4785L48.9315 20.0259L56.4668 21.244C57.4347 21.4007 57.8203 22.7167 57.1195 23.4687L51.6682 29.3437L52.955 37.6392C53.1182 38.7045 52.1095 39.5192 51.2417 39.0139L44.5 35.0972L37.7582 39.0139C36.8942 39.5152 35.8818 38.7045 36.045 37.6392L37.3318 29.3437L31.8805 23.4687C31.176 22.7167 31.5653 21.4007 32.5295 21.244L40.0722 20.0259Z" fill="white"/>
<path d="M55.625 82.25H33.375M55.625 82.25V49.35C55.625 48.7267 55.3906 48.129 54.9733 47.6883C54.556 47.2476 53.9901 47 53.4 47H35.6C35.0099 47 34.444 47.2476 34.0267 47.6883C33.6094 48.129 33.375 48.7267 33.375 49.35V82.25M55.625 82.25H75.65C76.2401 82.25 76.806 82.0024 77.2233 81.5617C77.6406 81.121 77.875 80.5232 77.875 79.9V70.8917C77.875 70.2684 77.6406 69.6707 77.2233 69.23C76.806 68.7892 76.2401 68.5417 75.65 68.5417H57.85C57.2599 68.5417 56.694 68.7892 56.2767 69.23C55.8594 69.6707 55.625 70.2684 55.625 70.8917V82.25ZM33.375 82.25V63.0583C33.375 62.4351 33.1406 61.8373 32.7233 61.3966C32.306 60.9559 31.7401 60.7083 31.15 60.7083H13.35C12.7599 60.7083 12.194 60.9559 11.7767 61.3966C11.3594 61.8373 11.125 62.4351 11.125 63.0583V79.9C11.125 80.5232 11.3594 81.121 11.7767 81.5617C12.194 82.0024 12.7599 82.25 13.35 82.25H33.375ZM40.0722 20.0259L43.4431 12.4785C43.5341 12.2627 43.6824 12.0795 43.87 11.9508C44.0575 11.8222 44.2764 11.7538 44.5 11.7538C44.7236 11.7538 44.9425 11.8222 45.13 11.9508C45.3176 12.0795 45.4659 12.2627 45.5569 12.4785L48.9315 20.0259L56.4668 21.244C57.4347 21.4007 57.8203 22.7167 57.1195 23.4687L51.6682 29.3437L52.955 37.6392C53.1182 38.7045 52.1095 39.5192 51.2417 39.0139L44.5 35.0972L37.7583 39.0139C36.8942 39.5152 35.8818 38.7045 36.045 37.6392L37.3318 29.3437L31.8805 23.4687C31.176 22.7167 31.5653 21.4007 32.5295 21.244L40.0722 20.0259Z" stroke="#B4B4B4" stroke-width="1.5" stroke-linecap="round" stroke-linejoin="round"/>
</g>
</g>
</svg>
