<svg width="82" height="80" viewBox="0 0 82 80" fill="none" xmlns="http://www.w3.org/2000/svg">
<g id="iconamoon:profile-fill">
<path id="Vector" fill-rule="evenodd" clip-rule="evenodd" d="M27.032 23.3333C27.032 19.7971 28.456 16.4057 30.9907 13.9052C33.5254 11.4048 36.9633 10 40.5479 10C44.1326 10 47.5704 11.4048 50.1052 13.9052C52.6399 16.4057 54.0639 19.7971 54.0639 23.3333C54.0639 26.8696 52.6399 30.2609 50.1052 32.7614C47.5704 35.2619 44.1326 36.6667 40.5479 36.6667C36.9633 36.6667 33.5254 35.2619 30.9907 32.7614C28.456 30.2609 27.032 26.8696 27.032 23.3333ZM27.032 43.3333C22.5511 43.3333 18.2538 45.0893 15.0854 48.2149C11.917 51.3405 10.137 55.5797 10.137 60C10.137 62.6522 11.205 65.1957 13.106 67.0711C15.0071 68.9464 17.5855 70 20.274 70H60.8219C63.5104 70 66.0888 68.9464 67.9898 67.0711C69.8909 65.1957 70.9589 62.6522 70.9589 60C70.9589 55.5797 69.1789 51.3405 66.0105 48.2149C62.8421 45.0893 58.5448 43.3333 54.0639 43.3333H27.032Z" fill="white"/>
</g>
</svg>
