<svg width="26" height="26" viewBox="0 0 26 26" fill="none" xmlns="http://www.w3.org/2000/svg">
<g id="material-symbols:date-range">
<path id="Vector" d="M8.83333 15.0834C8.53819 15.0834 8.29063 14.9834 8.09063 14.7834C7.89132 14.584 7.79167 14.3368 7.79167 14.0417C7.79167 13.7465 7.89132 13.499 8.09063 13.299C8.29063 13.0997 8.53819 13 8.83333 13C9.12847 13 9.37604 13.0997 9.57604 13.299C9.77535 13.499 9.875 13.7465 9.875 14.0417C9.875 14.3368 9.77535 14.584 9.57604 14.7834C9.37604 14.9834 9.12847 15.0834 8.83333 15.0834ZM13 15.0834C12.7049 15.0834 12.4576 14.9834 12.2583 14.7834C12.0583 14.584 11.9583 14.3368 11.9583 14.0417C11.9583 13.7465 12.0583 13.499 12.2583 13.299C12.4576 13.0997 12.7049 13 13 13C13.2951 13 13.5427 13.0997 13.7427 13.299C13.942 13.499 14.0417 13.7465 14.0417 14.0417C14.0417 14.3368 13.942 14.584 13.7427 14.7834C13.5427 14.9834 13.2951 15.0834 13 15.0834ZM17.1667 15.0834C16.8715 15.0834 16.6243 14.9834 16.425 14.7834C16.225 14.584 16.125 14.3368 16.125 14.0417C16.125 13.7465 16.225 13.499 16.425 13.299C16.6243 13.0997 16.8715 13 17.1667 13C17.4618 13 17.709 13.0997 17.9083 13.299C18.1083 13.499 18.2083 13.7465 18.2083 14.0417C18.2083 14.3368 18.1083 14.584 17.9083 14.7834C17.709 14.9834 17.4618 15.0834 17.1667 15.0834ZM5.70833 23.4167C5.13542 23.4167 4.64479 23.2129 4.23646 22.8052C3.82882 22.3969 3.625 21.9063 3.625 21.3334L3.625 6.75002C3.625 6.1771 3.82882 5.68683 4.23646 5.27919C4.64479 4.87085 5.13542 4.66669 5.70833 4.66669L6.75 4.66669L6.75 2.58335L8.83333 2.58335L8.83333 4.66669L17.1667 4.66669L17.1667 2.58335L19.25 2.58335L19.25 4.66669L20.2917 4.66669C20.8646 4.66669 21.3552 4.87085 21.7635 5.27919C22.1712 5.68682 22.375 6.1771 22.375 6.75002L22.375 21.3334C22.375 21.9063 22.1712 22.3969 21.7635 22.8052C21.3552 23.2129 20.8646 23.4167 20.2917 23.4167L5.70833 23.4167ZM5.70833 21.3334L20.2917 21.3334L20.2917 10.9167L5.70833 10.9167L5.70833 21.3334Z" fill="white"/>
</g>
</svg>
