<svg width="27" height="25" viewBox="0 0 27 25" fill="none" xmlns="http://www.w3.org/2000/svg">
<g id="ph:chair-fill">
<path id="Vector" d="M21.9375 13.2812H18.5625V10.1562H20.25C20.6976 10.1562 21.1268 9.99163 21.4432 9.6986C21.7597 9.40558 21.9375 9.00815 21.9375 8.59375V3.90625C21.9375 3.49185 21.7597 3.09442 21.4432 2.8014C21.1268 2.50837 20.6976 2.34375 20.25 2.34375H6.75C6.30245 2.34375 5.87322 2.50837 5.55676 2.8014C5.24029 3.09442 5.0625 3.49185 5.0625 3.90625V8.59375C5.0625 9.00815 5.24029 9.40558 5.55676 9.6986C5.87322 9.99163 6.30245 10.1562 6.75 10.1562H8.4375V13.2812H5.0625C4.61495 13.2812 4.18572 13.4459 3.86926 13.7389C3.55279 14.0319 3.375 14.4293 3.375 14.8438V16.4062C3.375 16.8207 3.55279 17.2181 3.86926 17.5111C4.18572 17.8041 4.61495 17.9688 5.0625 17.9688H5.90625V21.875C5.90625 22.0822 5.99515 22.2809 6.15338 22.4274C6.31161 22.5739 6.52622 22.6562 6.75 22.6562C6.97378 22.6562 7.18839 22.5739 7.34662 22.4274C7.50486 22.2809 7.59375 22.0822 7.59375 21.875V17.9688H19.4062V21.875C19.4062 22.0822 19.4951 22.2809 19.6534 22.4274C19.8116 22.5739 20.0262 22.6562 20.25 22.6562C20.4738 22.6562 20.6884 22.5739 20.8466 22.4274C21.0049 22.2809 21.0938 22.0822 21.0938 21.875V17.9688H21.9375C22.3851 17.9688 22.8143 17.8041 23.1307 17.5111C23.4472 17.2181 23.625 16.8207 23.625 16.4062V14.8438C23.625 14.4293 23.4472 14.0319 23.1307 13.7389C22.8143 13.4459 22.3851 13.2812 21.9375 13.2812ZM16.875 13.2812H10.125V10.1562H16.875V13.2812Z" fill="#FFA600"/>
</g>
</svg>
