<svg width="25" height="25" viewBox="0 0 25 25" fill="none" xmlns="http://www.w3.org/2000/svg">
<g id="material-symbols:search">
<path id="Vector" d="M19.9373 21.158L13.6373 14.858C13.1373 15.258 12.5623 15.5746 11.9123 15.808C11.2623 16.0413 10.5706 16.158 9.83728 16.158C8.02061 16.158 6.48328 15.5286 5.22528 14.27C3.96728 13.0113 3.33795 11.474 3.33728 9.65797C3.33661 7.84197 3.96595 6.30464 5.22528 5.04597C6.48461 3.7873 8.02195 3.15797 9.83728 3.15797C11.6526 3.15797 13.1903 3.7873 14.4503 5.04597C15.7103 6.30464 16.3393 7.84197 16.3373 9.65797C16.3373 10.3913 16.2206 11.083 15.9873 11.733C15.7539 12.383 15.4373 12.958 15.0373 13.458L21.3373 19.758L19.9373 21.158ZM9.83728 14.158C11.0873 14.158 12.1499 13.7206 13.0253 12.846C13.9006 11.9713 14.3379 10.9086 14.3373 9.65797C14.3366 8.4073 13.8993 7.34497 13.0253 6.47097C12.1513 5.59697 11.0886 5.1593 9.83728 5.15797C8.58595 5.15664 7.52361 5.5943 6.65028 6.47097C5.77695 7.34764 5.33928 8.40997 5.33728 9.65797C5.33528 10.906 5.77295 11.9686 6.65028 12.846C7.52761 13.7233 8.58995 14.1606 9.83728 14.158Z" fill="white"/>
</g>
</svg>
