<svg width="26" height="26" viewBox="0 0 26 26" fill="none" xmlns="http://www.w3.org/2000/svg">
<g id="fluent:status-12-filled">
<path id="Vector" d="M12.9998 2.16667C13.6022 2.16667 14.1915 2.21433 14.7678 2.30967L12.7398 4.33767C11.0492 4.3884 9.4103 4.93275 8.02525 5.90361C6.64019 6.87447 5.5695 8.2294 4.94516 9.80138C4.32082 11.3734 4.17011 13.0937 4.51162 14.7503C4.85313 16.4069 5.67193 17.9273 6.86708 19.1242C8.06223 20.3211 9.58149 21.1421 11.2376 21.4861C12.8937 21.83 14.6142 21.6818 16.1871 21.0597C17.76 20.4377 19.1165 19.369 20.0894 17.9853C21.0622 16.6017 21.609 14.9636 21.6622 13.273L23.6923 11.245C23.7862 11.8156 23.8332 12.4006 23.8332 13C23.8332 15.1426 23.1978 17.2371 22.0074 19.0187C20.817 20.8002 19.1251 22.1887 17.1456 23.0087C15.166 23.8286 12.9878 24.0432 10.8864 23.6252C8.7849 23.2072 6.85459 22.1754 5.33952 20.6603C3.82445 19.1453 2.79267 17.2149 2.37467 15.1135C1.95666 13.012 2.1712 10.8338 2.99115 8.85426C3.8111 6.87473 5.19963 5.1828 6.98116 3.99241C8.7627 2.80203 10.8572 2.16667 12.9998 2.16667ZM22.622 3.38433C22.2369 2.99919 21.7797 2.69367 21.2766 2.48522C20.7734 2.27678 20.2341 2.16949 19.6894 2.16949C19.1448 2.16949 18.6055 2.27678 18.1023 2.48522C17.5991 2.69367 17.1419 2.99919 16.7568 3.38433L11.1582 8.983C11.0403 9.10121 10.9513 9.24506 10.8982 9.40334L8.76618 15.73C8.69541 15.9402 8.6847 16.1659 8.73525 16.3819C8.7858 16.5978 8.8956 16.7954 9.05231 16.9523C9.20901 17.1092 9.4064 17.2193 9.62226 17.2702C9.83812 17.321 10.0639 17.3106 10.2742 17.2402L16.6008 15.1125C16.7599 15.0597 16.9045 14.9707 17.0233 14.8525L22.622 9.25167C23.0072 8.86658 23.3127 8.40939 23.5211 7.90621C23.7296 7.40304 23.8368 6.86373 23.8368 6.31909C23.8368 5.77444 23.7296 5.23513 23.5211 4.73196C23.3127 4.22878 23.0072 3.76943 22.622 3.38433Z" fill="#FFA600"/>
</g>
</svg>
