<svg width="26" height="26" viewBox="0 0 26 26" fill="none" xmlns="http://www.w3.org/2000/svg">
<g id="ic:baseline-access-time">
<path id="Vector" d="M12.9896 2.58334C7.23962 2.58334 2.58337 7.25 2.58338 13C2.58338 18.75 7.23963 23.4167 12.9896 23.4167C18.75 23.4167 23.4167 18.75 23.4167 13C23.4167 7.25 18.75 2.58334 12.9896 2.58334ZM13 21.3333C8.39588 21.3333 4.66671 17.6042 4.66671 13C4.66671 8.39584 8.39587 4.66667 13 4.66667C17.6042 4.66667 21.3334 8.39583 21.3334 13C21.3334 17.6042 17.6042 21.3333 13 21.3333Z" fill="white"/>
<path id="Vector_2" d="M13.5209 7.79167L11.9584 7.79167L11.9584 14.0417L17.4271 17.3229L18.2084 16.0417L13.5209 13.2604L13.5209 7.79167Z" fill="white"/>
</g>
</svg>
